<svg width="23" height="25" viewBox="0 0 23 25" fill="none" xmlns="http://www.w3.org/2000/svg">
<g clip-path="url(#clip0_363_10112)">
<path fill-rule="evenodd" clip-rule="evenodd" d="M20.5594 0.703125C21.821 0.703125 22.8438 1.72587 22.8438 2.9875V21.2625C22.8438 22.5242 21.821 23.5469 20.5594 23.5469H2.28437C1.02275 23.5469 0 22.5242 0 21.2625V2.9875C0 1.72587 1.02275 0.703125 2.28437 0.703125H20.5594ZM14.0578 6.41406C12.5049 6.41406 11.2461 7.7055 11.2461 9.2975C11.2461 9.52346 11.2714 9.74402 11.3188 9.95431C8.98199 9.8343 6.91033 8.68611 5.52288 6.94112C5.28145 7.3671 5.14281 7.86228 5.14281 8.3915C5.14281 9.39156 5.63885 10.2743 6.39319 10.7911C5.93246 10.776 5.49863 10.6462 5.11962 10.4306V10.4668C5.11962 11.8641 6.0885 13.0296 7.37526 13.294C7.13963 13.3599 6.89082 13.3951 6.6341 13.3951C6.45329 13.3951 6.2767 13.3767 6.10537 13.3437C6.46331 14.4892 7.50177 15.3234 8.73213 15.3465C7.7701 16.1201 6.55766 16.5812 5.23981 16.5812C5.01313 16.5812 4.7891 16.5678 4.56875 16.5407C5.81333 17.3586 7.29091 17.8359 8.87919 17.8359C14.0515 17.8359 16.8791 13.4422 16.8791 9.63158C16.8791 9.50671 16.8765 9.38238 16.8713 9.25859C17.421 8.85152 17.8981 8.34393 18.275 7.76605C17.7705 7.9958 17.2286 8.1504 16.6598 8.22014C17.2407 7.86335 17.6862 7.29845 17.896 6.62489C17.353 6.95518 16.751 7.19519 16.11 7.32493C15.5971 6.76436 14.8665 6.41406 14.0578 6.41406Z" fill="#545465"/>
</g>
<defs>
<clipPath id="clip0_363_10112">
<rect width="22.8438" height="23.9859" fill="white" transform="translate(0 0.132019)"/>
</clipPath>
</defs>
</svg>
