<svg width="24" height="25" viewBox="0 0 24 25" fill="none" xmlns="http://www.w3.org/2000/svg">
<g clip-path="url(#clip0_363_10106)">
<path fill-rule="evenodd" clip-rule="evenodd" d="M2.2 0.125C0.984974 0.125 0 1.10997 0 2.325V21.925C0 23.14 0.984974 24.125 2.2 24.125H21.8C23.015 24.125 24 23.14 24 21.925V2.325C24 1.10997 23.015 0.125 21.8 0.125H2.2ZM7.42857 20.125V9.26785H4V20.125H7.42857ZM5.71429 4.69643C4.68571 4.69643 4 5.30786 4 6.10786C4 6.90786 4.68571 7.55357 5.71429 7.55357C6.78857 7.55357 7.42857 6.90786 7.42857 6.10786C7.38857 5.30786 6.74286 4.69643 5.71429 4.69643ZM16.5714 20.125H20V13.9879C20 10.8279 18.16 9.26785 15.8914 9.26785C13.6743 9.26785 12.5714 10.7307 12.5714 10.7307V9.26785H9.14286V20.125H12.5714V14.4107C12.5714 13.2793 13.1429 12.1021 14.5257 12.1021H14.5714C16 12.125 16.5714 13.2679 16.5714 14.4107V20.125Z" fill="#545465"/>
</g>
<defs>
<clipPath id="clip0_363_10106">
<rect width="24" height="24" fill="white" transform="translate(0 0.125)"/>
</clipPath>
</defs>
</svg>
