<svg width="24" height="25" viewBox="0 0 24 25" fill="none" xmlns="http://www.w3.org/2000/svg">
<g clip-path="url(#clip0_363_10115)">
<path d="M21.6108 0.703125H2.92045C1.77307 0.703125 0.84375 1.63245 0.84375 2.77983V21.4701C0.84375 22.6176 1.77307 23.5469 2.92045 23.5469H13.304V14.2017H10.1889V11.0866H13.304V9.41386C13.304 6.24689 14.847 4.85653 17.4791 4.85653C18.7398 4.85653 19.4064 4.94998 19.7221 4.99255V7.97159H17.9268C16.8095 7.97159 16.4191 8.56138 16.4191 9.75548V11.0866H19.694L19.2495 14.2017H16.4191V23.5469H21.6108C22.7582 23.5469 23.6875 22.6176 23.6875 21.4701V2.77983C23.6875 1.63245 22.7572 0.703125 21.6108 0.703125Z" fill="#545465"/>
</g>
<defs>
<clipPath id="clip0_363_10115">
<rect width="22.8438" height="23.9859" fill="white" transform="translate(0.84375 0.132019)"/>
</clipPath>
</defs>
</svg>
