<svg width="24" height="25" viewBox="0 0 24 25" fill="none" xmlns="http://www.w3.org/2000/svg">
<g clip-path="url(#clip0_363_10109)">
<path d="M6.99805 0.125C3.13905 0.125 0 3.26695 0 7.12695V17.127C0 20.986 3.14195 24.125 7.00195 24.125H17.002C20.861 24.125 24 20.983 24 17.123V7.12305C24 3.26405 20.858 0.125 16.998 0.125H6.99805ZM19 4.125C19.552 4.125 20 4.573 20 5.125C20 5.677 19.552 6.125 19 6.125C18.448 6.125 18 5.677 18 5.125C18 4.573 18.448 4.125 19 4.125ZM12 6.125C15.309 6.125 18 8.816 18 12.125C18 15.434 15.309 18.125 12 18.125C8.691 18.125 6 15.434 6 12.125C6 8.816 8.691 6.125 12 6.125ZM12 8.125C9.79086 8.125 8 9.91586 8 12.125C8 14.3341 9.79086 16.125 12 16.125C14.2091 16.125 16 14.3341 16 12.125C16 9.91586 14.2091 8.125 12 8.125Z" fill="#545465"/>
</g>
<defs>
<clipPath id="clip0_363_10109">
<rect width="24" height="24" fill="white" transform="translate(0 0.125)"/>
</clipPath>
</defs>
</svg>
