<?xml version="1.0" standalone="no"?>
<!DOCTYPE svg PUBLIC "-//W3C//DTD SVG 20010904//EN"
 "http://www.w3.org/TR/2001/REC-SVG-20010904/DTD/svg10.dtd">
<svg version="1.0" xmlns="http://www.w3.org/2000/svg"
 width="400.000000pt" height="400.000000pt" viewBox="0 0 400.000000 400.000000"
 preserveAspectRatio="xMidYMid meet">

<g transform="translate(0.000000,400.000000) scale(0.100000,-0.100000)"
fill="#000000" stroke="none">
<path d="M0 2000 l0 -2000 2000 0 2000 0 0 2000 0 2000 -2000 0 -2000 0 0
-2000z m2235 1525 c59 -16 101 -37 164 -83 l33 -25 -178 -178 -179 -179 -242
0 -242 0 10 32 c12 45 11 48 -7 15 -24 -45 -29 -152 -10 -226 32 -124 66 -170
276 -379 l195 -193 -39 -35 c-135 -118 -308 -125 -471 -19 -27 18 -135 119
-240 224 l-190 191 405 404 c263 262 420 411 447 425 84 42 172 51 268 26z
m254 -711 c68 -33 97 -57 279 -237 111 -111 201 -204 200 -208 -8 -20 -742
-758 -790 -794 -32 -24 -81 -51 -110 -61 -67 -22 -168 -22 -235 0 -55 18 -173
90 -173 104 0 10 663 675 678 680 14 4 107 -108 134 -161 11 -23 24 -64 29
-92 7 -41 7 -34 5 37 -3 78 -8 96 -46 175 -40 82 -56 101 -233 281 l-191 192
29 30 c31 32 114 77 168 91 18 4 65 6 106 4 58 -4 90 -13 150 -41z m-1274
-1664 c20 -19 25 -33 25 -70 0 -48 -11 -70 -45 -88 -19 -10 -19 -11 6 -21 54
-20 74 -83 45 -139 -22 -42 -59 -57 -142 -57 -85 0 -120 19 -143 79 -13 33
-12 41 2 72 9 19 28 39 42 44 l24 9 -29 30 c-51 50 -35 133 30 160 14 6 55 10
92 8 55 -2 72 -7 93 -27z m374 -59 c18 -11 7 -41 -15 -41 -12 0 -14 -5 -8 -17
4 -10 9 -34 12 -54 3 -30 -1 -41 -28 -67 -29 -30 -36 -32 -101 -32 -65 0 -85
-9 -57 -26 6 -4 47 -10 90 -14 95 -8 120 -26 120 -85 0 -76 -68 -120 -175
-113 -74 5 -111 31 -115 81 -2 27 2 39 16 48 19 12 19 14 4 37 -15 23 -15 27
1 54 16 28 16 31 -3 55 -45 57 -15 152 53 172 41 12 188 13 206 2z m260 -5 c7
-8 11 -30 9 -48 -3 -31 -6 -33 -46 -39 -24 -3 -48 -12 -53 -20 -5 -8 -9 -49
-9 -91 0 -81 -13 -108 -49 -108 -37 0 -44 26 -45 157 -1 74 3 132 9 140 7 9
23 13 40 11 26 -3 31 -8 35 -38 l5 -35 13 31 c19 46 69 67 91 40z m281 -15
c14 -10 28 -31 31 -47 11 -48 10 -204 -1 -225 -13 -23 -56 -25 -80 -4 -15 14
-18 14 -30 0 -19 -23 -101 -20 -134 6 -33 26 -36 84 -6 117 22 23 78 42 128
42 32 0 33 1 30 38 -4 51 -39 57 -78 13 -30 -33 -63 -33 -80 0 -14 25 24 68
70 79 49 12 120 3 150 -19z m356 -5 l21 -24 26 25 c34 35 97 37 129 5 21 -20
23 -34 26 -143 4 -128 -2 -149 -42 -149 -39 0 -46 19 -46 120 0 101 -7 120
-45 120 -38 0 -45 -19 -45 -116 0 -97 -11 -124 -49 -124 -33 0 -41 22 -41 113
0 99 -10 127 -44 127 -38 0 -46 -21 -49 -124 -3 -100 -9 -115 -49 -116 -40 0
-48 25 -48 159 0 141 5 155 57 149 21 -2 29 -9 31 -27 l4 -23 26 25 c46 43
101 44 138 3z m492 8 c15 -10 22 -24 22 -44 0 -26 -4 -30 -28 -30 -16 0 -37 9
-47 20 -22 24 -58 26 -76 4 -21 -26 2 -48 67 -62 72 -16 98 -39 98 -88 0 -29
-7 -43 -32 -65 -29 -26 -39 -29 -105 -29 -75 1 -95 9 -116 48 -10 18 -10 27 0
38 17 21 43 17 69 -11 27 -28 61 -32 84 -9 19 19 20 28 4 42 -13 10 -22 13
-95 32 -99 25 -92 145 9 171 42 10 117 2 146 -17z"/>
<path d="M1078 1109 c-13 -7 -18 -22 -18 -50 0 -32 4 -41 23 -48 53 -20 95 35
63 83 -17 27 -39 32 -68 15z"/>
<path d="M1060 931 c-24 -46 0 -91 49 -91 35 0 51 17 51 55 0 40 -16 55 -57
55 -22 0 -36 -6 -43 -19z"/>
<path d="M1404 1026 c-3 -8 -4 -31 -2 -52 3 -38 4 -39 43 -39 34 0 41 4 49 27
16 44 -6 78 -49 78 -21 0 -38 -6 -41 -14z"/>
<path d="M1375 760 c-11 -18 5 -48 28 -54 84 -22 179 21 118 54 -25 13 -138
13 -146 0z"/>
<path d="M1990 900 c-26 -26 -25 -36 4 -55 20 -14 29 -14 48 -4 29 15 38 28
38 57 0 19 -5 22 -35 22 -22 0 -43 -8 -55 -20z"/>
</g>
</svg>
