<svg width="172" height="32" viewBox="0 0 172 32" fill="none" xmlns="http://www.w3.org/2000/svg">
<path d="M55.3914 21.2999L65.5551 10.5987V10.5303H55.7443V7.38489H70.5663V10.4961L60.4026 21.1974V21.2657H70.5663V24.4112H55.3914V21.2999Z" fill="#1F1F1F"/>
<path d="M71.9904 21.0264V10.8038L75.4841 7.38489H85.0479L88.6122 10.8038V17.163H75.9782V19.8982L77.3192 21.1974H83.3539L84.6244 19.9324V18.9067H88.577V21.0948L85.1538 24.4112H75.4488L71.9904 21.0264ZM84.6244 14.3253V11.9663L83.2481 10.5987H77.3545L75.9782 11.9663V14.3253H84.6244Z" fill="#1F1F1F"/>
<path d="M92.8532 21.0264V10.6671H89.677V7.38489H92.9238V1.84622H96.841V7.38489H102.24V10.6671H96.841V19.7956L98.2174 21.129H102.24V24.4112H96.347L92.8532 21.0264Z" fill="#1F1F1F"/>
<path d="M103.661 21.3683V17.334L106.802 14.3253H115.872V11.7953L114.566 10.5303H109.025L107.719 11.7953V12.8894H103.802V10.9064L107.402 7.38489H116.189L119.789 10.9064V24.4112H116.154V21.7786L113.331 24.4112H106.802L103.661 21.3683ZM112.942 21.3683L115.872 18.6332V17.1972H108.708L107.578 18.2571V20.3426L108.637 21.3683H112.942Z" fill="#1F1F1F"/>
<path d="M122.802 20.8897V0H126.79V10.0517L129.648 7.38489H135.965L139.494 10.8038V20.9922L135.965 24.4112H126.402L122.802 20.8897ZM134.024 21.0948L135.507 19.6589V12.1372L134.024 10.7013H130.284L126.79 14.086V19.6589L128.272 21.0948H134.024Z" fill="#1F1F1F"/>
<path d="M141.957 20.9922V10.8038L145.451 7.38489H155.191L158.72 10.8038V20.9922L155.191 24.4112H145.451L141.957 20.9922ZM153.32 21.1632L154.732 19.7956V12.0004L153.32 10.6329H147.356L145.945 12.0004V19.7956L147.356 21.1632H153.32Z" fill="#1F1F1F"/>
<path d="M162.613 21.0264V10.6671H159.437V7.38489H162.683V1.84622H166.601V7.38489H172V10.6671H166.601V19.7956L167.977 21.129H172V24.4112H166.107L162.613 21.0264Z" fill="#1F1F1F"/>
<path fill-rule="evenodd" clip-rule="evenodd" d="M13.0764 1.5332C5.85453 1.5332 0 7.38773 0 14.6097C0 21.8316 5.85454 27.6861 13.0765 27.6861H31.647C34.0174 30.9013 37.2896 31.9997 42.8588 31.9997C40.1536 30.706 38.7743 29.0216 38.0906 27.5042C44.272 26.464 48.9813 21.0868 48.9813 14.6097C48.9813 7.38773 43.1267 1.5332 35.9048 1.5332H13.0764Z" fill="#4D3689"/>
<ellipse cx="11.828" cy="14.6093" rx="5.4269" ry="5.25754" fill="white"/>
<path d="M23.3775 16.7667C23.3775 11.3744 32.4224 8.94743 35.3445 13.1268" stroke="white" stroke-width="1.95944"/>
</svg>
