<svg width="19" height="19" viewBox="0 0 19 19" fill="none" xmlns="http://www.w3.org/2000/svg">
<path d="M9.37995 2.45312C5.23995 2.45312 1.88745 5.81313 1.88745 9.95313C1.88745 14.0931 5.23995 17.4531 9.37995 17.4531C13.5275 17.4531 16.8875 14.0931 16.8875 9.95313C16.8875 5.81313 13.5275 2.45312 9.37995 2.45312ZM9.38745 15.9531C6.07245 15.9531 3.38745 13.2681 3.38745 9.95313C3.38745 6.63813 6.07245 3.95313 9.38745 3.95313C12.7025 3.95313 15.3875 6.63813 15.3875 9.95313C15.3875 13.2681 12.7025 15.9531 9.38745 15.9531ZM9.22245 6.20313H9.17745C8.87745 6.20313 8.63745 6.44313 8.63745 6.74312V10.2831C8.63745 10.5456 8.77245 10.7931 9.00495 10.9281L12.1175 12.7956C12.3725 12.9456 12.7025 12.8706 12.8525 12.6156C12.8901 12.5549 12.9152 12.4872 12.9261 12.4166C12.9371 12.346 12.9337 12.2739 12.9162 12.2046C12.8987 12.1353 12.8674 12.0703 12.8243 12.0133C12.7811 11.9564 12.7269 11.9087 12.665 11.8731L9.76245 10.1481V6.74312C9.76245 6.44313 9.52245 6.20313 9.22245 6.20313Z" fill="#828282"/>
</svg>
